<svg preserveAspectRatio="none" width="100%" height="100%" overflow="visible" style="display: block;" viewBox="0 0 18.0736 13.3333" fill="none" xmlns="http://www.w3.org/2000/svg">
<g id="Icon">
<path d="M1.05323 7.26098C0.939738 7.08128 0.882993 6.99143 0.851228 6.85285C0.827368 6.74875 0.827368 6.58458 0.851228 6.48049C0.882993 6.3419 0.939738 6.25205 1.05323 6.07235C1.99107 4.58737 4.78262 0.833333 9.03679 0.833333C13.291 0.833333 16.0825 4.58737 17.0204 6.07235C17.1339 6.25205 17.1906 6.3419 17.2224 6.48049C17.2462 6.58458 17.2462 6.74875 17.2224 6.85285C17.1906 6.99143 17.1339 7.08128 17.0204 7.26098C16.0825 8.74597 13.291 12.5 9.03679 12.5C4.78262 12.5 1.99107 8.74597 1.05323 7.26098Z" stroke="var(--stroke-0, #717680)" stroke-width="1.66667" stroke-linecap="round" stroke-linejoin="round"/>
<path d="M9.03679 9.16667C10.4175 9.16667 11.5368 8.04738 11.5368 6.66667C11.5368 5.28595 10.4175 4.16667 9.03679 4.16667C7.65608 4.16667 6.53679 5.28595 6.53679 6.66667C6.53679 8.04738 7.65608 9.16667 9.03679 9.16667Z" stroke="var(--stroke-0, #717680)" stroke-width="1.66667" stroke-linecap="round" stroke-linejoin="round"/>
</g>
</svg>
